<?xml version="1.0" encoding="UTF-8" standalone="no"?>
<!-- Created with Inkscape (http://www.inkscape.org/) -->

<svg
   width="1080"
   height="1080"
   viewBox="0 0 1080 1080"
   version="1.1"
   id="svg5"
   xml:space="preserve"
   inkscape:version="1.3 (0e150ed6c4, 2023-07-21)"
   sodipodi:docname="DevUp-white-text.svg"
   inkscape:export-filename="DevUp-white-text.svg"
   inkscape:export-xdpi="96"
   inkscape:export-ydpi="96"
   xmlns:inkscape="http://www.inkscape.org/namespaces/inkscape"
   xmlns:sodipodi="http://sodipodi.sourceforge.net/DTD/sodipodi-0.dtd"
   xmlns="http://www.w3.org/2000/svg"
   xmlns:svg="http://www.w3.org/2000/svg"><sodipodi:namedview
     id="namedview7"
     pagecolor="#ffffff"
     bordercolor="#999999"
     borderopacity="1"
     inkscape:showpageshadow="0"
     inkscape:pageopacity="0"
     inkscape:pagecheckerboard="0"
     inkscape:deskcolor="#d1d1d1"
     inkscape:document-units="px"
     showgrid="false"
     inkscape:zoom="0.76759259"
     inkscape:cx="444.89747"
     inkscape:cy="533.48613"
     inkscape:window-width="1920"
     inkscape:window-height="1017"
     inkscape:window-x="-8"
     inkscape:window-y="-8"
     inkscape:window-maximized="1"
     inkscape:current-layer="layer1" /><defs
     id="defs2"><rect
       x="1367.0617"
       y="1632.3675"
       width="1639.7371"
       height="475.33953"
       id="rect464" /></defs><g
     inkscape:label="Layer 1"
     inkscape:groupmode="layer"
     id="layer1"><g
       id="text240"
       style="font-size:192px;font-family:Montserrat;-inkscape-font-specification:Montserrat;fill:#ff6600"
       aria-label="DEVUP"><path
         style="fill:#ffffff"
         d="m 208.11339,486.63452 h 66.2 q 23,0 40.8,8.6 17.8,8.6 27.6,24.4 9.8,15.8 9.8,37 0,21.2 -9.8,37 -9.8,15.8 -27.6,24.4 -17.8,8.6 -40.8,8.6 h -66.2 z m 64.6,108.4 q 18,0 28.8,-10.2 11,-10.2 11,-28.2 0,-18 -11,-28.2 -10.8,-10.2 -28.8,-10.2 h -25 v 76.8 z"
         id="path1" /><path
         style="fill:#ffffff"
         d="m 460.43343,602.15452 v 24.48 h -89.92 v -112 h 87.84 v 24.48 h -56.48 v 18.88 h 49.76 v 23.68 h -49.76 v 20.48 z m 129.60011,-87.52 -48,112 h -31.2 l -47.84,-112 h 34.24 l 30.4,72.96 31.04,-72.96 z"
         id="path2" /><path
         style="fill:#ffffff"
         d="m 666.39366,629.43452 q -31.2,0 -48.6,-17 -17.2,-17 -17.2,-48.2 v -77.6 h 39.6 v 76.4 q 0,33.6 26.6,33.6 26.4,0 26.4,-33.6 v -76.4 h 39 v 77.6 q 0,31.2 -17.4,48.2 -17.2,17 -48.4,17 z"
         id="path3" /><path
         style="fill:#ffffff"
         d="m 807.39352,514.63452 q 15.2,0 26.4,5.12 11.2,4.96 17.28,14.4 6.08,9.28 6.08,21.92 0,12.64 -6.08,21.92 -6.08,9.28 -17.28,14.4 -11.2,4.96 -26.4,4.96 h -19.52 v 29.28 h -31.68 v -112 z m -1.92,57.76 q 9.76,0 14.72,-4.16 4.96,-4.32 4.96,-12.16 0,-7.84 -4.96,-12.16 -4.96,-4.32 -14.72,-4.32 h -17.6 v 32.8 z"
         id="path4" /></g><g
       id="text460"
       style="font-weight:800;font-size:53.3333px;font-family:Montserrat;-inkscape-font-specification:'Montserrat Ultra-Bold'"
       aria-label="UPSKILL&lt;/&gt;COLLAB"><path
         style="fill:#ffffff"
         d="m 267.70889,684.56649 q -8.32,0 -12.95999,-4.53333 -4.58667,-4.53333 -4.58667,-12.85333 v -20.69332 h 10.56 v 20.37332 q 0,8.96 7.09333,8.96 7.03999,0 7.03999,-8.96 v -20.37332 h 10.4 v 20.69332 q 0,8.32 -4.64,12.85333 -4.58667,4.53333 -12.90666,4.53333 z m 41.75994,-38.07998 q 5.06666,0 8.79999,1.70667 3.73333,1.65333 5.76,4.8 2.02666,3.09333 2.02666,7.30666 0,4.21333 -2.02666,7.30666 -2.02667,3.09333 -5.76,4.8 -3.73333,1.65333 -8.79999,1.65333 h -6.50667 v 9.75999 h -10.55999 v -37.33331 z m -0.64,19.25332 q 3.25333,0 4.90666,-1.38666 1.65333,-1.44 1.65333,-4.05333 0,-2.61333 -1.65333,-4.05333 -1.65333,-1.44 -4.90666,-1.44 h -5.86667 v 10.93332 z m 35.99995,18.82666 q -4.53333,0 -8.8,-1.12 -4.26666,-1.12 -6.93332,-2.98666 l 3.46666,-7.78667 q 2.50667,1.65334 5.81333,2.66667 3.30666,1.01333 6.50666,1.01333 6.08,0 6.08,-3.04 0,-1.6 -1.76,-2.34666 -1.70667,-0.8 -5.54666,-1.65333 -4.21333,-0.90667 -7.04,-1.92 -2.82666,-1.06667 -4.85333,-3.36 -2.02666,-2.29333 -2.02666,-6.18666 0,-3.41333 1.86666,-6.13333 1.86667,-2.77333 5.54666,-4.37333 3.73334,-1.6 9.12,-1.6 3.68,0 7.25333,0.85333 3.57333,0.8 6.29333,2.4 l -3.25333,7.83999 q -5.33333,-2.87999 -10.34666,-2.87999 -3.14667,0 -4.58667,0.95999 -1.44,0.90667 -1.44,2.4 0,1.49334 1.70667,2.24 1.70666,0.74667 5.49333,1.54667 4.26666,0.90666 7.03999,1.97333 2.82667,1.01333 4.85333,3.30666 2.08,2.24 2.08,6.13333 0,3.36 -1.86666,6.08 -1.86667,2.72 -5.6,4.37333 -3.73333,1.6 -9.06666,1.6 z m 35.78661,-14.29332 -3.94666,4.21333 v 9.33332 H 366.2154 v -37.33331 h 10.45333 v 15.51999 l 14.45332,-15.51999 h 11.62666 l -15.25332,16.53333 16.05332,20.79998 h -12.26666 z m 25.70669,-23.78666 h 10.55999 v 37.33331 h -10.55999 z m 18.08003,0 h 10.55999 v 28.95999 h 17.81332 v 8.37332 h -28.37331 z m 32.53335,0 h 10.56 v 28.95999 h 17.81332 v 8.37332 h -28.37332 z"
         id="path5" /><path
         style="fill:#d45500"
         d="m 515.12212,659.12651 -17.01332,6.02666 17.01332,6.02666 v 7.78666 l -26.29331,-9.70666 v -8.21333 l 26.29331,-9.70666 z m 18.71996,-20.21333 h 9.01333 l -17.59999,50.23997 h -9.01333 z m 35.89335,22.13332 v 8.21333 l -26.29331,9.70666 v -7.78666 l 17.01332,-6.02666 -17.01332,-6.02666 v -7.78667 z"
         id="path6" /><path
         style="fill:#ffffff"
         d="m 595.17539,684.56649 q -5.86666,0 -10.56,-2.45333 -4.63999,-2.50667 -7.30666,-6.93333 -2.66666,-4.42666 -2.66666,-10.02666 0,-5.6 2.66666,-10.02666 2.66667,-4.42667 7.30666,-6.88 4.69334,-2.50666 10.56,-2.50666 5.12,0 9.22666,1.81333 4.10666,1.81333 6.82666,5.22666 l -6.71999,6.08 q -3.62667,-4.37333 -8.8,-4.37333 -3.04,0 -5.44,1.33333 -2.34666,1.33333 -3.67999,3.78667 -1.28,2.39999 -1.28,5.54666 0,3.14666 1.28,5.6 1.33333,2.39999 3.67999,3.73333 2.4,1.33333 5.44,1.33333 5.17333,0 8.8,-4.37333 l 6.71999,6.07999 q -2.72,3.41334 -6.82666,5.22667 -4.10666,1.81333 -9.22666,1.81333 z m 38.77339,0 q -5.92,0 -10.66666,-2.50666 -4.69333,-2.50667 -7.41333,-6.93333 -2.66666,-4.42667 -2.66666,-9.97333 0,-5.54666 2.66666,-9.97333 2.72,-4.42666 7.41333,-6.93333 4.74666,-2.50666 10.66666,-2.50666 5.92,0 10.61333,2.50666 4.74666,2.50667 7.41333,6.93333 2.71999,4.42667 2.71999,9.97333 0,5.54666 -2.71999,9.97333 -2.66667,4.42666 -7.41333,6.93333 -4.69333,2.50666 -10.61333,2.50666 z m 0,-8.74666 q 2.82667,0 5.12,-1.33333 2.29333,-1.33334 3.62666,-3.73333 1.33333,-2.45334 1.33333,-5.6 0,-3.14667 -1.33333,-5.54666 -1.33333,-2.45334 -3.62666,-3.78667 -2.29333,-1.33333 -5.12,-1.33333 -2.82666,0 -5.12,1.33333 -2.29333,1.33333 -3.62666,3.78667 -1.33333,2.39999 -1.33333,5.54666 0,3.14666 1.33333,5.6 1.33333,2.39999 3.62666,3.73333 2.29334,1.33333 5.12,1.33333 z m 26.29334,-29.33332 h 10.55999 v 28.95999 h 17.81333 v 8.37332 h -28.37332 z m 32.53336,0 h 10.55999 v 28.95999 h 17.81332 v 8.37332 h -28.37331 z m 57.97331,30.07999 h -15.78666 l -2.93333,7.25332 h -10.77333 l 16.47999,-37.33331 h 10.39999 l 16.53333,37.33331 h -10.98666 z m -3.09334,-7.78667 -4.79999,-11.94666 -4.8,11.94666 z m 48.69326,-4.42666 q 3.19999,1.12 5.01333,3.52 1.81333,2.34666 1.81333,5.70666 0,4.90666 -3.94667,7.57333 -3.94666,2.66666 -11.41332,2.66666 h -20.15999 v -37.33331 h 19.09332 q 7.14666,0 10.87999,2.66667 3.73334,2.61333 3.73334,7.09333 0,2.66666 -1.33334,4.79999 -1.28,2.08 -3.67999,3.30667 z m -18.23999,-10.23999 v 7.19999 h 7.25333 q 5.33333,0 5.33333,-3.62666 0,-3.57333 -5.33333,-3.57333 z m 8.85332,22.07998 q 5.54667,0 5.54667,-3.78666 0,-3.78667 -5.54667,-3.78667 h -8.85332 v 7.57333 z"
         id="path7" /></g><text
       xml:space="preserve"
       id="text462"
       style="font-style:normal;font-variant:normal;font-weight:800;font-stretch:normal;font-size:93.3333px;font-family:Montserrat;-inkscape-font-specification:'Montserrat Ultra-Bold';white-space:pre;shape-inside:url(#rect464);display:inline;fill:#000000" /><g
       id="g814"
       transform="matrix(2.3073988,0,0,2.3073988,285.83661,56.053493)"><g
         id="layer2"
         inkscape:label="Layer 2" /><g
         inkscape:label="Layer 1"
         id="layer1-7"><g
           id="g734"
           transform="matrix(0.12623428,0,0,0.12623428,36.492681,76.276554)"><path
             fill="#ff6100"
             opacity="1"
             stroke="none"
             d="m 541.75,0.999996 c 1.39166,1.375492 2.43488,2.848889 3.68976,4.11189 21.72925,21.869826 44.02948,43.202884 65.10669,65.682914 31.79638,33.91256 54.27753,73.88734 72.36578,116.43353 21.47974,50.52321 34.99152,103.20001 42.22803,157.55979 5.80011,43.57009 7.37775,87.2922 4.65155,131.14474 -0.80524,12.95358 -2.36554,25.86649 -3.8407,38.76819 -0.43506,3.80499 0.47955,6.43835 3.25732,9.18146 20.3949,20.14032 40.39209,40.68676 60.93726,60.67077 31.62659,30.76282 41.6507,68.53913 37.35938,111.26837 -3.15668,31.43201 -14.09229,60.79889 -23.84565,90.48066 -4.77331,14.5263 -9.6853,29.00708 -14.54754,43.50402 -0.36383,1.08484 -0.83222,2.13453 -1.97132,5.02692 -1.5542,-2.35565 -2.33844,-4.11389 -3.60894,-5.38696 -37.66846,-37.74921 -75.40796,-75.42755 -113.04126,-113.21173 -2.42902,-2.43878 -4.80353,-3.46851 -8.25611,-3.4646 -80.65924,0.0918 -161.31851,0.0937 -241.97766,-0.007 -3.47531,-0.004 -5.82724,1.0802 -8.23135,3.49316 -37.63919,37.77808 -75.36426,75.47064 -113.07614,113.17627 -1.25809,1.258 -2.58533,2.44684 -4.35889,4.11896 -5.16632,-15.51026 -10.37054,-30.34528 -15.04349,-45.34589 -7.21441,-23.15894 -15.17032,-46.16772 -20.78656,-69.72308 -6.79425,-28.49585 -7.69105,-57.38251 2.16284,-85.72797 6.47376,-18.62231 17.41196,-34.30322 31.3183,-48.10034 20.70267,-20.54022 41.29181,-41.19489 62.01319,-61.71619 2.09753,-2.07721 2.78299,-4.01764 2.41189,-7.00372 -5.37594,-43.2594 -7.01083,-86.62409 -3.91394,-130.16299 3.76096,-52.87464 13.52893,-104.55445 30.15213,-154.8917 16.27445,-49.2812 38.28415,-95.71918 69.7952,-137.229559 7.43371,-9.792626 15.55444,-19.160523 24.13821,-27.964203 C 497.8934,44.091328 519.40308,22.939472 540.86499,1.304711 541,1 541.5,1 541.75,0.999996 m 41.5592,293.197334 c -26.04736,-24.53543 -62.73474,-23.56491 -86.21276,2.28064 -20.71552,22.80447 -19.96592,58.41201 1.69842,80.67965 21.74304,22.34851 57.63544,23.9029 81.00989,3.54285 25.66199,-22.35245 27.63702,-61.5 3.50445,-86.50314 z"
             id="path719" /><path
             fill="#ff6201"
             opacity="1"
             stroke="none"
             d="m 604.03052,850.99963 c 1.22937,34.34485 -10.1203,64.85535 -24.98621,94.40711 -10.19049,20.25769 -22.24725,39.3681 -35.85821,57.50046 -0.57447,0.7652 -1.22211,1.4754 -2.23804,2.6938 -2.29346,-3.2684 -4.44605,-6.15508 -6.41107,-9.16435 -20.41834,-31.26862 -38.82962,-63.53785 -49.81241,-99.53925 -4.35519,-14.27649 -6.58426,-28.81635 -6.41013,-43.75452 0.13562,-11.63623 0.0271,-23.27533 0.0271,-35.30206 41.89493,0 83.43503,0 125.68894,0 0,10.8429 0,21.75092 0,33.15881 z"
             id="path721" /></g></g></g></g></svg>
